<svg xmlns="http://www.w3.org/2000/svg" xmlns:xlink="http://www.w3.org/1999/xlink" xmlns:sketch="http://www.bohemiancoding.com/sketch/ns" viewBox="0 0 91 113.75" version="1.1" x="0px" y="0px"><title>rect20610</title><desc>Created with Sketch.</desc><g stroke="none" stroke-width="1" fill="none" fill-rule="evenodd" sketch:type="MSPage"><path d="M23.3838,0.845 L23.3838,8.345 L30.8838,8.345 L38.3838,8.345 L45.8838,8.345 L53.3838,8.345 L60.8838,8.345 L68.3838,8.345 L68.3838,0.845 L60.8838,0.845 L53.3838,0.845 L45.8838,0.845 L38.3838,0.845 L30.8838,0.845 L23.3838,0.845 L23.3838,0.845 Z M68.3838,8.345 L68.3838,15.845 L75.8838,15.845 L75.8838,8.345 L68.3838,8.345 L68.3838,8.345 Z M75.8838,15.845 L75.8838,23.345 L83.3838,23.345 L83.3838,15.845 L75.8838,15.845 L75.8838,15.845 Z M83.3838,23.345 L83.3838,30.845 L83.3838,38.345 L83.3838,45.845 L83.3838,53.345 L83.3838,60.845 L83.3838,68.345 L90.8838,68.345 L90.8838,60.845 L90.8838,53.345 L90.8838,45.845 L90.8838,38.345 L90.8838,30.845 L90.8838,23.345 L83.3838,23.345 L83.3838,23.345 Z M83.3838,68.345 L75.8838,68.345 L75.8838,75.845 L83.3838,75.845 L83.3838,68.345 L83.3838,68.345 Z M75.8838,75.845 L68.3838,75.845 L68.3838,83.345 L75.8838,83.345 L75.8838,75.845 L75.8838,75.845 Z M68.3838,83.345 L60.8838,83.345 L53.3838,83.345 L45.8838,83.345 L38.3838,83.345 L30.8838,83.345 L23.3838,83.345 L23.3838,90.845 L30.8838,90.845 L38.3838,90.845 L45.8838,90.845 L53.3838,90.845 L60.8838,90.845 L68.3838,90.845 L68.3838,83.345 L68.3838,83.345 Z M23.3838,83.345 L23.3838,75.845 L15.8838,75.845 L15.8838,83.345 L23.3838,83.345 L23.3838,83.345 Z M15.8838,75.845 L15.8838,68.345 L8.3838,68.345 L8.3838,75.845 L15.8838,75.845 L15.8838,75.845 Z M8.3838,68.345 L8.3838,60.845 L8.3838,53.345 L8.3838,45.845 L8.3838,38.345 L8.3838,30.845 L8.3838,23.345 L0.8838,23.345 L0.8838,30.845 L0.8838,38.345 L0.8838,45.845 L0.8838,53.345 L0.8838,60.845 L0.8838,68.345 L8.3838,68.345 L8.3838,68.345 Z M8.3838,23.345 L15.8838,23.345 L15.8838,15.845 L8.3838,15.845 L8.3838,23.345 L8.3838,23.345 Z M15.8838,15.845 L23.3838,15.845 L23.3838,8.345 L15.8838,8.345 L15.8838,15.845 L15.8838,15.845 Z M45.8838,15.845 L45.8838,23.345 L45.8838,30.845 L53.3838,30.845 L60.8838,30.845 L60.8838,23.345 L60.8838,15.845 L53.3838,15.845 L45.8838,15.845 L45.8838,15.845 Z M45.8838,30.845 L38.3838,30.845 L30.8838,30.845 L30.8838,38.345 L38.3838,38.345 L45.8838,38.345 L45.8838,30.845 L45.8838,30.845 Z M30.8838,38.345 L23.3838,38.345 L15.8838,38.345 L15.8838,45.845 L15.8838,53.345 L23.3838,53.345 L30.8838,53.345 L30.8838,45.845 L30.8838,38.345 L30.8838,38.345 Z M30.8838,53.345 L30.8838,60.845 L38.3838,60.845 L45.8838,60.845 L45.8838,53.345 L38.3838,53.345 L30.8838,53.345 L30.8838,53.345 Z M45.8838,60.845 L45.8838,68.345 L45.8838,75.845 L53.3838,75.845 L60.8838,75.845 L60.8838,68.345 L60.8838,60.845 L53.3838,60.845 L45.8838,60.845 L45.8838,60.845 Z" fill="#000000" sketch:type="MSShapeGroup"/></g><text x="0" y="106" fill="#000000" font-size="5px" font-weight="bold" font-family="'Helvetica Neue', Helvetica, Arial-Unicode, Arial, Sans-serif">Created by Bluetip Labs</text><text x="0" y="111" fill="#000000" font-size="5px" font-weight="bold" font-family="'Helvetica Neue', Helvetica, Arial-Unicode, Arial, Sans-serif">from the Noun Project</text></svg>