<svg xmlns="http://www.w3.org/2000/svg" xmlns:xlink="http://www.w3.org/1999/xlink" version="1.0" x="0px" y="0px" viewBox="0 0 100 125" enable-background="new 0 0 100 100" xml:space="preserve"><g><g><path d="M59.3225288,15.5937099c-15.4687424,0-28.053503,12.5823593-28.053503,28.0482006    c0,4.459198,1.0508404,8.6758804,2.9102383,12.4232407L14.9073858,75.338829    c-0.0579596,0.0579605-0.0867596,0.1305618-0.1303196,0.1961975c-0.83568,0.9801636-1.1103601,2.4045639-0.7393198,3.9680405    c0.3550797,1.4912415,1.2516003,3.0146408,2.5254002,4.2884445c1.7507992,1.7485199,3.8461189,2.6841583,5.6438389,2.6836777    c1.0992012,0,2.0870399-0.3493195,2.8171444-1.0764008l0.0004559-0.0007172    c0.0002403-0.0002441,0.0004807-0.0002441,0.0007439-0.0004807L43.5897865,66.855072    c4.4896774,3.0524368,9.9062386,4.839241,15.7327423,4.839241c15.467617,0,28.0524025-12.5841637,28.0524025-28.0524025    C87.3749313,28.1760693,74.7901459,15.5937099,59.3225288,15.5937099z M23.329586,83.6983871L23.329586,83.6983871    c-0.8179207,0.8168411-3.159359,0.3040848-5.069519-1.6042786c-0.9504013-0.9497986-1.6371365-2.0965195-1.8867378-3.1459198    c-0.2003994-0.8443222-0.0995998-1.5451202,0.2777767-1.9225159c0.0324001-0.032402,0.045023-0.0747604,0.0729599-0.1099243    L35.385025,58.253231c1.6695595,2.7249603,3.7919998,5.1422386,6.2605209,7.1509209L23.329586,83.6983871z M59.3225288,69.2943115    c-14.1455994,0-25.6535034-11.5078812-25.6535034-25.652401c0-14.1427212,11.5079041-25.648201,25.6535034-25.648201    c14.144619,0,25.652401,11.5054798,25.652401,25.648201C84.9749298,57.7864304,73.4671478,69.2943115,59.3225288,69.2943115z"/><path d="M76.4553833,39.8772697c-1.2761993-0.0908394-2.4983978,0.3286819-3.4581604,1.1660385    c-0.6492004,0.5671234-1.1054382,1.2891617-1.370636,2.0856018l-4.7013626-0.3175201    c-0.2530823-2.32584-1.552803-4.3393211-3.4170952-5.5634384l1.4873772-3.6709213    c0.2764816,0.1026001,0.5636368,0.186718,0.8649597,0.2375984c0.0011978,0,0.0011978,0,0.0011978,0    c0.2671204,0.045723,0.5331573,0.0673218,0.795723,0.0673218c2.2839584,0,4.30896-1.6506004,4.7014771-3.9762001    c0.4371643-2.5933208-1.31604-5.05896-3.9093552-5.4966011c-1.2585602-0.2144394-2.5207214,0.07728-3.5577621,0.8156414    c-1.0383606,0.7382393-1.7274017,1.8368397-1.9394417,3.0931187c-0.2388,1.4166012,0.1916389,2.7821999,1.0398254,3.8128815    l-1.6755867,4.1355591c-0.6369591-0.1724396-1.3031998-0.2726402-1.9940147-0.2726402    c-1.9799042,0-3.7806244,0.7622414-5.1407051,2.0006409l-2.7503967-2.7835197    c0.4477196-0.6789589,0.7334366-1.4542809,0.7895966-2.2874413c0.1758003-2.6243992-1.8140373-4.90308-4.4379578-5.0794792    c-2.6331596-0.1845608-4.90308,1.8122406-5.0811615,4.4367599c-0.1757736,2.6237984,1.8152428,4.90308,4.4390411,5.0799599    c0.1101608,0.007679,0.21912,0.0111618,0.3280792,0.0111618c0.7699203,0,1.5096016-0.1990814,2.1815033-0.5490036    l3.0196571,3.0559235c-0.6326408,1.1128769-0.9987602,2.3960381-0.9987602,3.7649994    c0,1.0147171,0.2028008,1.9818001,0.5631599,2.8687172l-4.299839,2.7027626    c-0.8121605-0.79776-1.8571205-1.2919197-3.0051613-1.3692017c-1.2761993-0.0866394-2.4995995,0.3282013-3.4581604,1.1660423    c-0.9597588,0.8379593-1.5363579,1.9997978-1.6219177,3.2707176c-0.1757774,2.6244011,1.8140373,4.90308,4.4379578,5.0794792    c0.108963,0.0076828,0.2167206,0.0111618,0.3246002,0.0111618c2.4843597,0,4.5854416-1.9329605,4.7565613-4.4483986    c0.0383034-0.5684433-0.0381584-1.1239204-0.1929588-1.6548004l4.2995987-2.7027626    c1.4045982,1.665123,3.5032806,2.7268829,5.8472633,2.7268829c0.2067375,0,0.4097748-0.0148811,0.6123352-0.0309601    l0.8700027,4.9703979c-0.2754021,0.1573219-0.5376015,0.3417587-0.7815361,0.554882    c-0.9597855,0.8378372-1.5362663,1.9997978-1.6218262,3.2707176c-0.1757736,2.6238022,1.8140411,4.9024811,4.4378395,5.0800781    c0.1089592,0.0075607,0.2168427,0.0111618,0.3234024,0.0111618c2.484478,0,4.5867577-1.9336777,4.7578773-4.4485207    c0.1758041-2.6237984-1.8140411-4.9018784-4.4379578-5.0794792c-0.1164017-0.0082779-0.2300415,0.0094795-0.3458405,0.0097198    l-0.8631592-4.9314003c2.291275-0.9616776,4.0181961-3.0071983,4.5368652-5.4922791l4.6558533,0.31464    c0.3976822,2.0783997,2.139122,3.7214394,4.3467636,3.870842c0.1090775,0.0075569,0.216835,0.011158,0.3235168,0.011158    c2.4855576,0,4.5866623-1.9336815,4.7577591-4.4485207C81.0702209,42.3329506,79.0791855,40.0542717,76.4553833,39.8772697z     M64.3194275,28.7175102c0.1054993-0.6240005,0.4477158-1.1701202,0.9632339-1.5368404    c0.5156403-0.3668404,1.1426697-0.5098801,1.7672424-0.4054794c1.2878418,0.2179203,2.1597595,1.4425201,1.9418411,2.7309589    c-0.2168121,1.2879601-1.4308777,2.1568813-2.7316818,1.94244C64.9722214,31.2306709,64.1015015,30.0054703,64.3194275,28.7175102    z M44.4491043,54.9681091c-1.3030777-0.087841-2.2921181-1.2199173-2.204277-2.5235977    c0.0422401-0.6316795,0.3281021-1.2082825,0.8050766-1.6248016c0.434761-0.3802795,0.9820824-0.5847588,1.5550804-0.5847588    c0.0538826,0,0.108963,0.0016785,0.1628418,0.0052795c0.6316795,0.0427208,1.2095032,0.3286781,1.6254005,0.8050804    c0.4172401,0.4762802,0.6235199,1.0868378,0.5801048,1.7173195C46.8854637,54.0675087,45.7464256,55.04599,44.4491043,54.9681091z     M65.5253296,60.5398293c-0.0878677,1.3024826-1.1987991,2.281559-2.5242233,2.2054825    c-1.3031998-0.088562-2.2922401-1.22052-2.2042809-2.5243225c0.0421181-0.6315575,0.3281059-1.2081604,0.8050804-1.6247978    c0.4756775-0.4171219,1.0886383-0.6216011,1.71912-0.579483C64.6241302,58.1052704,65.6131439,59.2372284,65.5253296,60.5398293z     M47.3025856,34.9665108c-1.3042793-0.0884399-2.2933197-1.2210007-2.2053604-2.5236015    c0.087841-1.3042793,1.237442-2.2869587,2.5242004-2.2048798c1.3031044,0.087841,2.2921181,1.2199211,2.2043037,2.5236015    c-0.042263,0.6316795-0.3282242,1.2088776-0.8051033,1.6247978C48.5436249,34.803669,47.9283867,35.0105515,47.3025856,34.9665108    z M59.3225288,48.89431c-1.7865829,0-3.3629036-0.9003601-4.3118629-2.2670403    c-0.0298805-0.1223984-0.064682-0.2449188-0.1353378-0.3573608c-0.0455971-0.0725975-0.1127014-0.1195183-0.170063-0.1786804    c-0.391201-0.7342796-0.6338387-1.5591583-0.6338387-2.4475174c0-2.8951225,2.3555031-5.25,5.2511024-5.25    c2.8946152,0,5.2500038,2.3548775,5.2500038,5.25C64.5725327,46.5388298,62.217144,48.89431,59.3225288,48.89431z     M75.9749298,46.9999886c-1.3031082-0.0885582-2.2922668-1.22052-2.2043076-2.5243187    c0.0421219-0.6315613,0.3280792-1.2081604,0.8051071-1.6241989c0.4757767-0.4171219,1.0886154-0.6175194,1.7178955-0.5800819    c1.3042831,0.088562,2.2934418,1.22052,2.2054825,2.5231209C78.4112625,46.0975914,77.290947,47.0807495,75.9749298,46.9999886z"/></g></g><text x="0" y="115" fill="#000000" font-size="5px" font-weight="bold" font-family="'Helvetica Neue', Helvetica, Arial-Unicode, Arial, Sans-serif">Created by Yu luck</text><text x="0" y="120" fill="#000000" font-size="5px" font-weight="bold" font-family="'Helvetica Neue', Helvetica, Arial-Unicode, Arial, Sans-serif">from the Noun Project</text></svg>