<?xml version="1.0" encoding="utf-8"?>
<!-- Generator: Adobe Illustrator 15.0.0, SVG Export Plug-In . SVG Version: 6.00 Build 0)  -->
<!DOCTYPE svg PUBLIC "-//W3C//DTD SVG 1.1//EN" "http://www.w3.org/Graphics/SVG/1.1/DTD/svg11.dtd">
<svg version="1.1" id="Layer_1" xmlns="http://www.w3.org/2000/svg" xmlns:xlink="http://www.w3.org/1999/xlink" x="0px" y="0px"
	 width="257px" height="130px" viewBox="104.5 49 257 130" enable-background="new 104.5 49 257 130" xml:space="preserve">
<path fill="#FFFFFF" d="M311.256,93.429c0.444-2.149,2.547-3.531,4.697-3.086c2.148,0.443,3.531,2.546,3.087,4.695
	c-0.445,2.148-2.547,3.531-4.695,3.087C312.194,97.68,310.812,95.578,311.256,93.429"/>
<path fill="#FFFFFF" d="M323.154,112.811c0.444-2.149,2.547-3.531,4.696-3.087c2.148,0.444,3.531,2.547,3.086,4.695
	c-0.444,2.149-2.546,3.531-4.694,3.087C324.092,117.062,322.71,114.959,323.154,112.811"/>
<path fill="#FFFFFF" d="M327.368,135.275c0.444-2.148,2.546-3.531,4.696-3.087c2.148,0.443,3.531,2.546,3.087,4.694
	c-0.444,2.15-2.546,3.532-4.695,3.087C328.306,139.525,326.924,137.426,327.368,135.275"/>
<path fill="#FFFFFF" d="M324.315,79.596c0.59-2.86,3.389-4.7,6.249-4.108c2.86,0.591,4.699,3.389,4.108,6.249
	c-0.592,2.86-3.39,4.7-6.25,4.108C325.563,85.254,323.724,82.456,324.315,79.596"/>
<path fill="#FFFFFF" d="M340.149,105.39c0.591-2.859,3.389-4.699,6.249-4.108c2.86,0.592,4.699,3.389,4.108,6.249
	c-0.592,2.86-3.389,4.699-6.248,4.107C341.397,111.046,339.558,108.249,340.149,105.39"/>
<path fill="#FFFFFF" d="M345.758,135.285c0.591-2.859,3.388-4.699,6.249-4.108c2.86,0.591,4.698,3.39,4.108,6.25
	c-0.592,2.858-3.389,4.697-6.248,4.107C347.005,140.942,345.166,138.146,345.758,135.285"/>
<path fill="#FFFFFF" d="M341.459,165.636c0.592-2.86,3.39-4.7,6.251-4.109c2.86,0.591,4.697,3.39,4.107,6.25
	c-0.591,2.858-3.388,4.697-6.247,4.107C342.708,171.293,340.869,168.495,341.459,165.636"/>
<path fill="#FFFFFF" d="M297.848,60.359c0.592-2.859,3.389-4.698,6.249-4.107c2.859,0.591,4.699,3.389,4.109,6.248
	c-0.592,2.861-3.391,4.7-6.249,4.109C299.096,66.018,297.256,63.22,297.848,60.359"/>
<path fill="#FFFFFF" d="M306.587,120.046c0.3-1.457,1.724-2.393,3.18-2.091c1.457,0.301,2.393,1.725,2.092,3.18
	c-0.3,1.456-1.724,2.393-3.18,2.092S306.285,121.502,306.587,120.046"/>
<path fill="#FFFFFF" d="M114.677,89.208c-0.708,0-1.338-0.274-1.887-0.826c-0.551-0.549-0.826-1.297-0.826-2.241
	c0-0.864,0.275-1.572,0.826-2.123c0.549-0.549,1.179-0.825,1.887-0.825c0.708,0,1.336,0.276,1.887,0.825
	c0.549,0.551,0.826,1.259,0.826,2.123c0,0.944-0.295,1.692-0.884,2.241C115.915,88.933,115.305,89.208,114.677,89.208"/>
<rect x="113.379" y="109.61" fill="#FFFFFF" width="2.595" height="54.252"/>
<path fill="#FFFFFF" d="M141.33,89.208c-0.708,0-1.339-0.274-1.887-0.826c-0.551-0.549-0.826-1.297-0.826-2.241
	c0-0.864,0.275-1.572,0.826-2.123c0.548-0.549,1.179-0.825,1.887-0.825c0.707,0,1.336,0.276,1.886,0.825
	c0.55,0.551,0.826,1.259,0.826,2.123c0,0.944-0.295,1.692-0.884,2.241C142.568,88.933,141.958,89.208,141.33,89.208"/>
<rect x="140.032" y="109.61" fill="#FFFFFF" width="2.595" height="54.252"/>
<rect x="166.81" y="83.193" fill="#FFFFFF" width="2.347" height="80.668"/>
<path fill="#FFFFFF" d="M224.71,151.596c0,2.046,0.097,4.228,0.294,6.547c0.196,2.318,0.413,4.227,0.649,5.72h-2.477
	c-0.158-0.786-0.276-1.749-0.354-2.891c-0.08-1.14-0.177-2.317-0.295-3.538c-0.117-1.218-0.196-2.418-0.235-3.597
	c-0.041-1.18-0.059-2.161-0.059-2.948h-0.354c-1.574,4.952-4.287,8.63-8.138,11.025c-3.853,2.399-7.981,3.598-12.383,3.598
	c-2.202,0-4.384-0.314-6.546-0.942c-2.163-0.631-4.109-1.571-5.837-2.83c-1.73-1.256-3.125-2.869-4.187-4.836
	c-1.062-1.963-1.593-4.285-1.593-6.958c0-3.851,1.002-6.958,3.008-9.317c2.005-2.358,4.5-4.187,7.488-5.483
	c2.988-1.296,6.191-2.141,9.612-2.536c3.421-0.393,6.546-0.589,9.376-0.589h9.435v-4.364c0-6.054-1.613-10.476-4.835-13.268
	c-3.224-2.79-7.43-4.186-12.619-4.186c-3.226,0-6.232,0.59-9.022,1.769c-2.792,1.179-5.289,2.753-7.489,4.717l-1.415-2.005
	c2.516-2.2,5.366-3.872,8.55-5.012c3.185-1.14,6.31-1.711,9.376-1.711c6.209,0,11.104,1.592,14.683,4.777
	c3.577,3.185,5.366,8.198,5.366,15.038V151.596L224.71,151.596z M222.115,134.26h-8.374c-2.989,0-6.132,0.177-9.435,0.53
	c-3.302,0.354-6.33,1.081-9.081,2.183c-2.754,1.101-5.013,2.672-6.782,4.717c-1.77,2.045-2.654,4.797-2.654,8.255
	c0,2.517,0.491,4.62,1.475,6.31c0.982,1.692,2.241,3.047,3.774,4.068c1.533,1.022,3.223,1.769,5.072,2.241
	c1.845,0.471,3.597,0.707,5.248,0.707c4.01,0,7.351-0.746,10.025-2.24c2.672-1.494,4.815-3.401,6.427-5.722
	c1.61-2.317,2.731-4.874,3.361-7.666c0.628-2.789,0.943-5.521,0.943-8.195V134.26z"/>
<path fill="#FFFFFF" d="M244.994,124.354c2.354-5.426,5.706-9.513,10.06-12.266c4.353-2.751,9.118-4.127,14.298-4.127
	c3.999,0,7.665,0.729,11.001,2.182c3.334,1.456,6.197,3.461,8.589,6.016c2.393,2.556,4.236,5.601,5.53,9.14
	c1.294,3.537,1.941,7.391,1.941,11.557c0,4.088-0.667,7.884-2.002,11.38c-1.334,3.5-3.196,6.527-5.589,9.081
	c-2.392,2.557-5.255,4.562-8.589,6.015c-3.334,1.454-6.962,2.183-10.883,2.183c-2.589,0-5.119-0.354-7.591-1.062
	c-2.47-0.707-4.765-1.748-6.881-3.124c-2.119-1.375-4.042-3.067-5.767-5.071c-1.727-2.005-3.099-4.344-4.118-7.018h-0.354v14.625
	h-2.714V83.192h2.714v41.16L244.994,124.354L244.994,124.354z M293.819,136.854c0-3.537-0.568-6.918-1.706-10.142
	c-1.139-3.224-2.767-6.055-4.884-8.492c-2.117-2.436-4.687-4.382-7.706-5.838c-3.021-1.453-6.412-2.182-10.177-2.182
	c-3.607,0-6.923,0.708-9.94,2.123c-3.021,1.415-5.628,3.322-7.824,5.72c-2.197,2.399-3.923,5.21-5.179,8.433
	c-1.254,3.225-1.881,6.644-1.881,10.26c0,3.618,0.627,7.037,1.881,10.261c1.256,3.225,2.981,6.036,5.179,8.433
	c2.196,2.398,4.803,4.304,7.824,5.72c3.019,1.415,6.333,2.122,9.94,2.122c3.765,0,7.156-0.707,10.177-2.122
	c3.02-1.416,5.589-3.321,7.706-5.72c2.116-2.398,3.745-5.208,4.884-8.433C293.25,143.773,293.819,140.392,293.819,136.854"/>
<path fill="#FFFFFF" d="M310.725,93.429c0.443-2.149,2.546-3.531,4.696-3.086c2.148,0.443,3.531,2.546,3.087,4.695
	c-0.444,2.148-2.547,3.531-4.694,3.087C311.662,97.68,310.28,95.578,310.725,93.429"/>
<path fill="#FFFFFF" d="M322.623,112.811c0.443-2.149,2.546-3.531,4.695-3.087s3.532,2.547,3.087,4.695
	c-0.445,2.149-2.546,3.531-4.694,3.087C323.56,117.062,322.179,114.959,322.623,112.811"/>
<path fill="#FFFFFF" d="M326.837,135.275c0.443-2.148,2.546-3.531,4.695-3.087c2.149,0.443,3.532,2.546,3.087,4.694
	c-0.443,2.15-2.546,3.532-4.694,3.087C327.774,139.525,326.392,137.426,326.837,135.275"/>
<path fill="#FFFFFF" d="M323.783,79.596c0.591-2.86,3.389-4.7,6.249-4.108c2.861,0.591,4.699,3.389,4.108,6.249
	c-0.592,2.86-3.389,4.7-6.249,4.108C325.031,85.254,323.192,82.456,323.783,79.596"/>
<path fill="#FFFFFF" d="M339.617,105.39c0.591-2.859,3.389-4.699,6.25-4.108c2.859,0.592,4.698,3.389,4.107,6.249
	c-0.592,2.86-3.389,4.699-6.248,4.107C340.865,111.046,339.026,108.249,339.617,105.39"/>
<path fill="#FFFFFF" d="M345.226,135.285c0.591-2.859,3.388-4.699,6.249-4.108s4.699,3.39,4.108,6.25
	c-0.591,2.858-3.389,4.697-6.248,4.107C346.473,140.942,344.634,138.146,345.226,135.285"/>
<path fill="#FFFFFF" d="M340.928,165.636c0.591-2.86,3.39-4.7,6.251-4.109c2.859,0.591,4.697,3.39,4.106,6.25
	c-0.591,2.858-3.387,4.697-6.247,4.107C342.176,171.293,340.337,168.495,340.928,165.636"/>
<path fill="#FFFFFF" d="M297.316,60.359c0.591-2.859,3.389-4.698,6.249-4.107c2.859,0.591,4.698,3.389,4.108,6.248
	c-0.592,2.861-3.39,4.7-6.249,4.109C298.564,66.018,296.725,63.22,297.316,60.359"/>
<path fill="#FFFFFF" d="M306.055,120.046c0.301-1.457,1.725-2.393,3.181-2.091c1.457,0.301,2.392,1.725,2.092,3.18
	c-0.301,1.456-1.725,2.393-3.181,2.092S305.754,121.502,306.055,120.046"/>
<path fill="#FFFFFF" d="M114.145,89.208c-0.708,0-1.338-0.274-1.887-0.826c-0.551-0.549-0.826-1.297-0.826-2.241
	c0-0.864,0.275-1.572,0.826-2.123c0.549-0.549,1.179-0.825,1.887-0.825c0.708,0,1.336,0.276,1.887,0.825
	c0.549,0.551,0.826,1.259,0.826,2.123c0,0.944-0.295,1.692-0.884,2.241C115.383,88.933,114.773,89.208,114.145,89.208"/>
<rect x="112.848" y="109.61" fill="#FFFFFF" width="2.595" height="54.252"/>
<path fill="#FFFFFF" d="M140.798,89.208c-0.708,0-1.339-0.274-1.887-0.826c-0.551-0.549-0.826-1.297-0.826-2.241
	c0-0.864,0.275-1.572,0.826-2.123c0.548-0.549,1.179-0.825,1.887-0.825c0.707,0,1.336,0.276,1.886,0.825
	c0.55,0.551,0.826,1.259,0.826,2.123c0,0.944-0.295,1.692-0.884,2.241C142.036,88.933,141.427,89.208,140.798,89.208"/>
<rect x="139.5" y="109.61" fill="#FFFFFF" width="2.595" height="54.252"/>
<rect x="166.278" y="83.193" fill="#FFFFFF" width="2.347" height="80.668"/>
<path fill="#FFFFFF" d="M224.178,151.596c0,2.046,0.097,4.228,0.294,6.547c0.196,2.318,0.413,4.227,0.649,5.72h-2.477
	c-0.158-0.786-0.276-1.749-0.354-2.891c-0.08-1.14-0.177-2.317-0.295-3.538c-0.118-1.218-0.196-2.418-0.235-3.597
	c-0.041-1.18-0.059-2.161-0.059-2.948h-0.354c-1.574,4.952-4.287,8.63-8.138,11.025c-3.853,2.399-7.981,3.598-12.383,3.598
	c-2.202,0-4.384-0.314-6.546-0.942c-2.163-0.631-4.109-1.571-5.837-2.83c-1.73-1.256-3.125-2.869-4.187-4.836
	c-1.062-1.963-1.593-4.285-1.593-6.958c0-3.851,1.002-6.958,3.008-9.317c2.005-2.358,4.5-4.187,7.488-5.483
	c2.988-1.296,6.191-2.141,9.612-2.536c3.421-0.393,6.546-0.589,9.376-0.589h9.435v-4.364c0-6.054-1.612-10.476-4.835-13.268
	c-3.225-2.79-7.43-4.186-12.619-4.186c-3.226,0-6.232,0.59-9.023,1.769c-2.792,1.179-5.288,2.753-7.489,4.717l-1.415-2.005
	c2.516-2.2,5.366-3.872,8.55-5.012c3.185-1.14,6.31-1.711,9.376-1.711c6.209,0,11.104,1.592,14.682,4.777
	c3.578,3.185,5.367,8.198,5.367,15.038V151.596L224.178,151.596z M221.583,134.26h-8.373c-2.989,0-6.132,0.177-9.435,0.53
	c-3.302,0.354-6.33,1.081-9.081,2.183c-2.753,1.101-5.013,2.672-6.781,4.717c-1.77,2.045-2.654,4.797-2.654,8.255
	c0,2.517,0.491,4.62,1.475,6.31c0.982,1.692,2.241,3.047,3.774,4.068c1.533,1.022,3.223,1.769,5.072,2.241
	c1.845,0.471,3.597,0.707,5.248,0.707c4.01,0,7.351-0.746,10.025-2.24c2.672-1.494,4.815-3.401,6.427-5.722
	c1.61-2.317,2.731-4.874,3.361-7.666c0.628-2.789,0.943-5.521,0.943-8.195V134.26z"/>
<path fill="#FFFFFF" d="M244.462,124.354c2.354-5.426,5.706-9.513,10.06-12.266c4.353-2.751,9.119-4.127,14.299-4.127
	c3.998,0,7.665,0.729,11,2.182c3.335,1.456,6.198,3.461,8.59,6.016c2.392,2.556,4.236,5.601,5.53,9.14
	c1.293,3.537,1.94,7.391,1.94,11.557c0,4.088-0.667,7.884-2.001,11.38c-1.334,3.5-3.197,6.527-5.589,9.081
	c-2.392,2.557-5.256,4.562-8.589,6.015c-3.335,1.454-6.962,2.183-10.884,2.183c-2.589,0-5.119-0.354-7.59-1.062
	c-2.471-0.707-4.766-1.748-6.882-3.124c-2.119-1.375-4.042-3.067-5.766-5.071c-1.728-2.005-3.1-4.344-4.119-7.018h-0.354v14.625
	h-2.713V83.192h2.713v41.16L244.462,124.354L244.462,124.354z M293.288,136.854c0-3.537-0.569-6.918-1.707-10.142
	c-1.139-3.224-2.766-6.055-4.883-8.492c-2.117-2.436-4.687-4.382-7.707-5.838c-3.021-1.453-6.412-2.182-10.176-2.182
	c-3.607,0-6.924,0.708-9.941,2.123c-3.021,1.415-5.628,3.322-7.824,5.72c-2.197,2.399-3.923,5.21-5.178,8.433
	c-1.254,3.225-1.882,6.644-1.882,10.26c0,3.618,0.628,7.037,1.882,10.261c1.255,3.225,2.98,6.036,5.178,8.433
	c2.196,2.398,4.804,4.304,7.824,5.72c3.019,1.415,6.334,2.122,9.941,2.122c3.764,0,7.155-0.707,10.176-2.122
	c3.021-1.416,5.59-3.321,7.707-5.72c2.116-2.398,3.744-5.208,4.883-8.433C292.718,143.773,293.288,140.392,293.288,136.854"/>
</svg>
