<svg xmlns="http://www.w3.org/2000/svg" xmlns:xlink="http://www.w3.org/1999/xlink" xmlns:sketch="http://www.bohemiancoding.com/sketch/ns" viewBox="0 0 91 113.75" version="1.1" x="0px" y="0px"><title>rect15344</title><desc>Created with Sketch.</desc><g stroke="none" stroke-width="1" fill="none" fill-rule="evenodd" sketch:type="MSPage"><path d="M22.9033,0.45508 L22.9033,7.95508 L30.4033,7.95508 L37.9033,7.95508 L45.4033,7.95508 L52.9033,7.95508 L60.4033,7.95508 L67.9033,7.95508 L67.9033,0.45508 L60.4033,0.45508 L52.9033,0.45508 L45.4033,0.45508 L37.9033,0.45508 L30.4033,0.45508 L22.9033,0.45508 L22.9033,0.45508 Z M67.9033,7.95508 L67.9033,15.45508 L75.4033,15.45508 L75.4033,7.95508 L67.9033,7.95508 L67.9033,7.95508 Z M75.4033,15.45508 L75.4033,22.95508 L82.9033,22.95508 L82.9033,15.45508 L75.4033,15.45508 L75.4033,15.45508 Z M82.9033,22.95508 L82.9033,30.45508 L82.9033,37.95508 L82.9033,45.45508 L82.9033,52.95508 L82.9033,60.45508 L82.9033,67.95508 L90.4033,67.95508 L90.4033,60.45508 L90.4033,52.95508 L90.4033,45.45508 L90.4033,37.95508 L90.4033,30.45508 L90.4033,22.95508 L82.9033,22.95508 L82.9033,22.95508 Z M82.9033,67.95508 L75.4033,67.95508 L75.4033,75.45508 L82.9033,75.45508 L82.9033,67.95508 L82.9033,67.95508 Z M75.4033,75.45508 L67.9033,75.45508 L67.9033,82.95508 L75.4033,82.95508 L75.4033,75.45508 L75.4033,75.45508 Z M67.9033,82.95508 L60.4033,82.95508 L52.9033,82.95508 L45.4033,82.95508 L37.9033,82.95508 L30.4033,82.95508 L22.9033,82.95508 L22.9033,90.45508 L30.4033,90.45508 L37.9033,90.45508 L45.4033,90.45508 L52.9033,90.45508 L60.4033,90.45508 L67.9033,90.45508 L67.9033,82.95508 L67.9033,82.95508 Z M22.9033,82.95508 L22.9033,75.45508 L15.4033,75.45508 L15.4033,82.95508 L22.9033,82.95508 L22.9033,82.95508 Z M15.4033,75.45508 L15.4033,67.95508 L7.9033,67.95508 L7.9033,75.45508 L15.4033,75.45508 L15.4033,75.45508 Z M7.9033,67.95508 L7.9033,60.45508 L7.9033,52.95508 L7.9033,45.45508 L7.9033,37.95508 L7.9033,30.45508 L7.9033,22.95508 L0.4033,22.95508 L0.4033,30.45508 L0.4033,37.95508 L0.4033,45.45508 L0.4033,52.95508 L0.4033,60.45508 L0.4033,67.95508 L7.9033,67.95508 L7.9033,67.95508 Z M7.9033,22.95508 L15.4033,22.95508 L15.4033,15.45508 L7.9033,15.45508 L7.9033,22.95508 L7.9033,22.95508 Z M15.4033,15.45508 L22.9033,15.45508 L22.9033,7.95508 L15.4033,7.95508 L15.4033,15.45508 L15.4033,15.45508 Z M22.9033,22.95508 L22.9033,30.45508 L15.4033,30.45508 L15.4033,37.95508 L15.4033,45.45508 L15.4033,52.95508 L22.9033,52.95508 L22.9033,60.45508 L30.4033,60.45508 L30.4033,67.95508 L37.9033,67.95508 L37.9033,75.45508 L45.4033,75.45508 L52.9033,75.45508 L52.9033,67.95508 L60.4033,67.95508 L60.4033,60.45508 L67.9033,60.45508 L67.9033,52.95508 L75.4033,52.95508 L75.4033,45.45508 L75.4033,37.95508 L75.4033,30.45508 L67.9033,30.45508 L67.9033,22.95508 L60.4033,22.95508 L52.9033,22.95508 L52.9033,30.45508 L45.4033,30.45508 L37.9033,30.45508 L37.9033,22.95508 L30.4033,22.95508 L22.9033,22.95508 L22.9033,22.95508 Z" fill="#000000" sketch:type="MSShapeGroup"/></g><text x="0" y="106" fill="#000000" font-size="5px" font-weight="bold" font-family="'Helvetica Neue', Helvetica, Arial-Unicode, Arial, Sans-serif">Created by Bluetip Labs</text><text x="0" y="111" fill="#000000" font-size="5px" font-weight="bold" font-family="'Helvetica Neue', Helvetica, Arial-Unicode, Arial, Sans-serif">from the Noun Project</text></svg>